# xmcd
#
# Track frame offsets: 
#        150
#        19122
#        39493
#        57768
#        81571
#        97074
#        115631
#        137050
#        153168
#
# Disc length: 2405 seconds
#
# Revision: 2
# Processed by: cddbd v1.5.2PL0 Copyright (c) Steve Scherf et al.
# Submitted via: ExactAudioCopy v0.99pb4
#
DISCID=6d096309
DTITLE=The Quireboys - Well Oiled
DYEAR=2004
DGENRE=Rock
TTITLE0=Good To See Ya
TTITLE1=The Finer Stuff
TTITLE2=Lorraine Lorraine
TTITLE3=Too Familiar
TTITLE4=You've Got A Nerve
TTITLE5=What's Your Name?
TTITLE6=Sweet As The Rain
TTITLE7=The Last Fence
TTITLE8=Black Mariah
EXTD=YEAR: 2004
EXTT0=
EXTT1=
EXTT2=
EXTT3=
EXTT4=
EXTT5=
EXTT6=
EXTT7=
EXTT8=
PLAYORDER=
